<svg width="187" height="30" fill="none" xmlns="http://www.w3.org/2000/svg"><path d="M119.4 0c.32 0 .6.29.6.62v2.75c0 .33-.28.63-.6.63H99.59c-.32 0-.59-.3-.59-.63V.62c0-.33.27-.62.59-.62h19.81zM59.89 24.25a.558.558 0 00-.77 0c-1.31 1.03-2.89 1.74-4.77 1.74-3.99 0-6.97-3.24-6.97-7.06 0-3.85 2.96-7.12 6.94-7.12 1.74 0 3.49.68 4.8 1.81.24.24.57.24.77 0l1.89-1.92c.25-.24.25-.61-.03-.87C59.63 8.98 57.36 8 54.21 8 48 8 43 12.91 43 19.03 43 25.13 48 30 54.23 30c2.77 0 5.46-.95 7.57-2.96.23-.22.28-.61.04-.83l-1.95-1.96zM90.39 8h-2.98a.59.59 0 00-.61.59v8.33H76.23V8.59c0-.32-.26-.59-.61-.59H72.6c-.32 0-.6.27-.6.59V29.4c0 .32.28.6.6.6h3.02c.35 0 .61-.28.61-.6v-8.67H86.8v8.67c0 .32.25.6.61.6h2.98c.32 0 .61-.28.61-.6V8.59c0-.32-.29-.59-.61-.59zm19.87.34c-.08-.19-.23-.34-.54-.34h-.31c-.28 0-.44.15-.54.34l-9.81 20.85c-.19.41.07.81.54.81h2.74c.5 0 .78-.31.9-.62l6.19-13.61h.08l6.24 13.61c.23.43.44.62.91.62h2.73c.47 0 .73-.42.54-.81l-9.67-20.85zM135.97 8h-7.38c-.35 0-.59.27-.59.59V29.4c0 .32.24.6.59.6h2.88c.31 0 .59-.28.59-.6v-7.39h3.93c3.84 0 7.01-3.18 7.01-7.08.01-3.79-3.17-6.93-7.03-6.93zm-.26 10.19h-3.65v-6.33h3.65c1.76 0 3.23 1.32 3.23 3.04 0 1.86-1.47 3.29-3.23 3.29zM155.42 8h-2.85c-.3 0-.57.27-.57.59V29.4c0 .32.27.6.57.6h2.85c.3 0 .57-.28.57-.6V8.59c.02-.32-.27-.59-.57-.59zm30.93 0h-2.94c-.36 0-.61.27-.61.58v12.87h-.03l-10.58-10.89-2.1-2.17c-.25-.26-.6-.39-.96-.39h-.53c-.34 0-.6.25-.6.58V29.2c0 .33.26.59.6.59h2.93c.36 0 .61-.28.61-.59V15.82h.03l.04.03 12.9 13.73s.39.41.75.41c.51 0 1.14.06 1.14-.57V8.58a.65.65 0 00-.65-.58zM3.42 8H.57c-.3 0-.57.27-.57.59V29.4c0 .32.27.6.57.6h2.85c.3 0 .57-.28.57-.6V8.59c.02-.32-.27-.59-.57-.59zm30.93 0h-2.94c-.36 0-.61.27-.61.58v12.87h-.04L20.19 10.56l-2.1-2.17c-.25-.26-.6-.39-.96-.39h-.53c-.34 0-.6.25-.6.58V29.2c0 .33.26.59.6.59h2.93c.36 0 .61-.28.61-.59V15.82h.03l.04.03 12.9 13.73s.39.41.75.41c.51 0 1.14.06 1.14-.57V8.58a.65.65 0 00-.65-.58z" fill="#2F80ED"/></svg>