<svg width="62" height="28" fill="none" xmlns="http://www.w3.org/2000/svg"><path d="M11.15 15.13l-8.98 4.84c-.86.46-1.91-.16-1.91-1.14V9.16c0-.98 1.05-1.6 1.91-1.14l8.98 4.84c.9.48.9 1.79 0 2.27z" fill="#FFF"/><path d="M22.63 14.82v4.77h-1.5v-12h4.83c2.41 0 3.76 1.65 3.76 3.62 0 1.96-1.39 3.61-3.76 3.61h-3.33zm16.14 3.44v1.33H31.7v-12h1.49v10.67h5.58zm7.54-10.67l4.84 12h-1.71l-1.06-2.66H42.4l-1.06 2.66h-1.71l4.83-12h1.85zm10.25 6.93v5.07h-1.49v-5.07l-4.73-6.93h1.74l3.73 5.58 3.72-5.58h1.75l-4.72 6.93zm-33.93-1.03h3.15c1.42 0 2.39-.93 2.39-2.28 0-1.36-.97-2.29-2.39-2.29h-3.15v4.57zm20.21 2.11h5.09l-2.54-6.46-2.55 6.46z" fill="#FFF" fill-rule="evenodd"/></svg>