<svg width="259" height="259" fill="none" xmlns="http://www.w3.org/2000/svg"><circle cx="129.5" cy="129.5" r="129.5" fill="#2F80ED"/><path d="M160 86.71c0-.91-.84-1.71-1.79-1.71H98.78c-.95 0-1.78.8-1.78 1.71v7.57c0 .91.83 1.72 1.78 1.72h59.43c.95 0 1.79-.81 1.79-1.72v-7.57zM129.17 108c.95 0 1.36.45 1.63 1.01l29.01 61.61c.57 1.16-.21 2.38-1.63 2.38h-8.2c-1.41 0-2.04-.56-2.72-1.83l-18.71-40.19h-.26l-18.56 40.19c-.37.91-1.2 1.83-2.72 1.83h-8.2c-1.42 0-2.2-1.17-1.63-2.38l29.43-61.61c.32-.56.79-1.01 1.62-1.01h.94z" fill="#FFF" fill-rule="evenodd"/></svg>