<svg width="862" height="137" fill="none" xmlns="http://www.w3.org/2000/svg"><defs><clipPath id="a"><path fill="#fff" fill-opacity="0" d="M0 0h862v137H0z"/></clipPath></defs><path d="M0 0h862v137H0z"/><g clip-path="url(#a)" fill="#000"><path d="M245.36 137c23.17 0 38.88-11.12 49.88-26.21l-13.95-7.75c-7.46 11.32-21.01 19.26-35.93 19.26-28.68 0-50.48-22.43-50.48-53.8 0-31.58 21.8-53.81 50.48-53.81 14.92 0 28.47 8.14 35.93 19.26l13.75-7.75C284.63 11.31 268.53 0 245.36 0 207.65 0 178 27.79 178 68.5c0 40.7 29.65 68.5 67.36 68.5zm179.84-2.39V2.18h-16.3v56.98h-76.59V2.18h-16.3v132.43h16.3V73.86h76.59v60.75h16.3zm142.76 0L515.13 2.18H494.9l-52.63 132.43h18.66l11.59-29.38h65.2l11.58 29.38h18.66zm-35.15-44.08h-55.58l27.89-71.28 27.69 71.28zm68.49 44.08V82h36.33c25.92 0 41.04-18.27 41.04-39.91 0-21.64-14.73-39.91-41.04-39.91H585v132.43h16.3zm34.36-67.31H601.3V16.87h34.36c15.52 0 26.12 10.33 26.12 25.22 0 14.89-10.6 25.21-26.12 25.21zM16.3 134.61V2.18H0v132.43h16.3zm139.09 0V2.18h-16.3v103.44L63.67 2.18H46.98v132.43h16.3V28.98l76.39 105.63h15.72zm559.91 0V2.18H699v132.43h16.3zm139.09 0V2.18h-16.3v103.44L762.68 2.18h-16.7v132.43h16.3V28.98l76.4 105.63h15.71z"/></g></svg>