<svg width="187.000000" height="30.000000" viewBox="0 0 187 30" fill="none" xmlns="http://www.w3.org/2000/svg" xmlns:xlink="http://www.w3.org/1999/xlink">
	<desc>
			Created with Pixso.
	</desc>
	<defs/>
	<path id="Vector" d="M119.4 0C119.72 0 120 0.29 120 0.62L120 3.37C120 3.7 119.72 4 119.4 4L99.59 4C99.27 4 99 3.7 99 3.37L99 0.62C99 0.29 99.27 0 99.59 0L119.4 0Z" fill="#2F80ED" fill-opacity="1.000000" fill-rule="nonzero"/>
	<path id="Vector" d="M59.89 24.25C59.7 24.06 59.36 24.03 59.12 24.25C57.81 25.28 56.23 25.99 54.35 25.99C50.36 25.99 47.38 22.75 47.38 18.93C47.38 15.08 50.34 11.81 54.32 11.81C56.06 11.81 57.81 12.49 59.12 13.62C59.36 13.86 59.69 13.86 59.89 13.62L61.78 11.7C62.03 11.46 62.03 11.09 61.75 10.83C59.63 8.98 57.36 8 54.21 8C48 8 43 12.91 43 19.03C43 25.13 48 30 54.23 30C57 30 59.69 29.05 61.8 27.04C62.03 26.82 62.08 26.43 61.84 26.21L59.89 24.25Z" fill="#2F80ED" fill-opacity="1.000000" fill-rule="nonzero"/>
	<path id="Vector" d="M90.39 8L87.41 8C87.05 8 86.8 8.27 86.8 8.59L86.8 16.92L76.23 16.92L76.23 8.59C76.23 8.27 75.97 8 75.62 8L72.6 8C72.28 8 72 8.27 72 8.59L72 29.4C72 29.72 72.28 30 72.6 30L75.62 30C75.97 30 76.23 29.72 76.23 29.4L76.23 20.73L86.8 20.73L86.8 29.4C86.8 29.72 87.05 30 87.41 30L90.39 30C90.71 30 91 29.72 91 29.4L91 8.59C91 8.27 90.71 8 90.39 8Z" fill="#2F80ED" fill-opacity="1.000000" fill-rule="nonzero"/>
	<path id="Vector" d="M110.26 8.34C110.18 8.15 110.03 8 109.72 8L109.41 8C109.13 8 108.97 8.15 108.87 8.34L99.06 29.19C98.87 29.6 99.13 30 99.6 30L102.34 30C102.84 30 103.12 29.69 103.24 29.38L109.43 15.77L109.51 15.77L115.75 29.38C115.98 29.81 116.19 30 116.66 30L119.39 30C119.86 30 120.12 29.58 119.93 29.19L110.26 8.34Z" fill="#2F80ED" fill-opacity="1.000000" fill-rule="nonzero"/>
	<path id="Vector" d="M135.97 8L128.59 8C128.24 8 128 8.27 128 8.59L128 29.4C128 29.72 128.24 30 128.59 30L131.47 30C131.78 30 132.06 29.72 132.06 29.4L132.06 22.01L135.99 22.01C139.83 22.01 143 18.83 143 14.93C143.01 11.14 139.83 8 135.97 8ZM135.71 18.19L132.06 18.19L132.06 11.86L135.71 11.86C137.47 11.86 138.94 13.18 138.94 14.9C138.94 16.76 137.47 18.19 135.71 18.19Z" fill="#2F80ED" fill-opacity="1.000000" fill-rule="nonzero"/>
	<path id="Vector" d="M155.42 8L152.57 8C152.27 8 152 8.27 152 8.59L152 29.4C152 29.72 152.27 30 152.57 30L155.42 30C155.72 30 155.99 29.72 155.99 29.4L155.99 8.59C156.01 8.27 155.72 8 155.42 8Z" fill="#2F80ED" fill-opacity="1.000000" fill-rule="nonzero"/>
	<path id="Vector" d="M186.35 8L183.41 8C183.05 8 182.8 8.27 182.8 8.58L182.8 21.45L182.77 21.45L172.19 10.56L170.09 8.39C169.84 8.13 169.49 8 169.13 8L168.6 8C168.26 8 168 8.25 168 8.58L168 29.2C168 29.53 168.26 29.79 168.6 29.79L171.53 29.79C171.89 29.79 172.14 29.51 172.14 29.2L172.14 15.82L172.17 15.82L172.21 15.85L185.11 29.58C185.11 29.58 185.5 29.99 185.86 29.99C186.37 29.99 187 30.05 187 29.42L187 8.58C186.96 8.25 186.69 8 186.35 8Z" fill="#2F80ED" fill-opacity="1.000000" fill-rule="nonzero"/>
	<path id="Vector" d="M3.42 8L0.57 8C0.27 8 0 8.27 0 8.59L0 29.4C0 29.72 0.27 30 0.57 30L3.42 30C3.72 30 3.99 29.72 3.99 29.4L3.99 8.59C4.01 8.27 3.72 8 3.42 8Z" fill="#2F80ED" fill-opacity="1.000000" fill-rule="nonzero"/>
	<path id="Vector" d="M34.35 8L31.41 8C31.05 8 30.8 8.27 30.8 8.58L30.8 21.45L30.76 21.45L20.19 10.56L18.09 8.39C17.84 8.13 17.49 8 17.13 8L16.6 8C16.26 8 16 8.25 16 8.58L16 29.2C16 29.53 16.26 29.79 16.6 29.79L19.53 29.79C19.89 29.79 20.14 29.51 20.14 29.2L20.14 15.82L20.17 15.82L20.21 15.85L33.11 29.58C33.11 29.58 33.5 29.99 33.86 29.99C34.37 29.99 35 30.05 35 29.42L35 8.58C34.96 8.25 34.69 8 34.35 8Z" fill="#2F80ED" fill-opacity="1.000000" fill-rule="nonzero"/>
</svg>
