<svg width="259.000000" height="259.000000" viewBox="0 0 259 259" fill="none" xmlns="http://www.w3.org/2000/svg" xmlns:xlink="http://www.w3.org/1999/xlink">
	<desc>
			Created with Pixso.
	</desc>
	<defs/>
	<circle id="Ellipse 14" cx="129.500000" cy="129.500000" r="129.500000" fill="#2F80ED" fill-opacity="1.000000"/>
	<path id="Vector" d="M160 86.71C160 85.8 159.16 85 158.21 85L98.78 85C97.83 85 97 85.8 97 86.71L97 94.28C97 95.19 97.83 96 98.78 96L158.21 96C159.16 96 160 95.19 160 94.28L160 86.71ZM129.17 108C130.12 108 130.53 108.45 130.8 109.01L159.81 170.62C160.38 171.78 159.6 173 158.18 173L149.98 173C148.57 173 147.94 172.44 147.26 171.17L128.55 130.98L128.29 130.98L109.73 171.17C109.36 172.08 108.53 173 107.01 173L98.81 173C97.39 173 96.61 171.83 97.18 170.62L126.61 109.01C126.93 108.45 127.4 108 128.23 108L129.17 108Z" fill="#FFFFFF" fill-opacity="1.000000" fill-rule="evenodd"/>
</svg>
