<svg width="862.000000" height="137.000000" viewBox="0 0 862 137" fill="none" xmlns="http://www.w3.org/2000/svg" xmlns:xlink="http://www.w3.org/1999/xlink">
	<desc>
			Created with Pixso.
	</desc>
	<defs>
		<clipPath id="clip2001_34">
			<rect id="INCHAPIN 1" width="862.000000" height="137.000000" fill="white" fill-opacity="0"/>
		</clipPath>
	</defs>
	<rect id="INCHAPIN 1" width="862.000000" height="137.000000" fill="#FFFFFF" fill-opacity="0"/>
	<g clip-path="url(#clip2001_34)">
		<path id="Vector" d="M245.36 137C268.53 137 284.24 125.88 295.24 110.79L281.29 103.04C273.83 114.36 260.28 122.3 245.36 122.3C216.68 122.3 194.88 99.87 194.88 68.5C194.88 36.92 216.68 14.69 245.36 14.69C260.28 14.69 273.83 22.83 281.29 33.95L295.04 26.2C284.63 11.31 268.53 0 245.36 0C207.65 0 178 27.79 178 68.5C178 109.2 207.65 137 245.36 137Z" fill="#000000" fill-opacity="1.000000" fill-rule="nonzero"/>
		<path id="Vector" d="M425.2 134.61L425.2 2.18L408.9 2.18L408.9 59.16L332.31 59.16L332.31 2.18L316.01 2.18L316.01 134.61L332.31 134.61L332.31 73.86L408.9 73.86L408.9 134.61L425.2 134.61Z" fill="#000000" fill-opacity="1.000000" fill-rule="nonzero"/>
		<path id="Vector" d="M567.96 134.61L515.13 2.18L494.9 2.18L442.27 134.61L460.93 134.61L472.52 105.23L537.72 105.23L549.3 134.61L567.96 134.61ZM532.81 90.53L477.23 90.53L505.12 19.25L532.81 90.53Z" fill="#000000" fill-opacity="1.000000" fill-rule="nonzero"/>
		<path id="Vector" d="M601.3 134.61L601.3 82L637.63 82C663.55 82 678.67 63.73 678.67 42.09C678.67 20.45 663.94 2.18 637.63 2.18L585 2.18L585 134.61L601.3 134.61ZM635.66 67.3L601.3 67.3L601.3 16.87L635.66 16.87C651.18 16.87 661.78 27.2 661.78 42.09C661.78 56.98 651.18 67.3 635.66 67.3Z" fill="#000000" fill-opacity="1.000000" fill-rule="nonzero"/>
		<path id="Vector" d="M16.3 134.61L16.3 2.18L0 2.18L0 134.61L16.3 134.61Z" fill="#000000" fill-opacity="1.000000" fill-rule="nonzero"/>
		<path id="Vector" d="M155.39 134.61L155.39 2.18L139.09 2.18L139.09 105.62L63.67 2.18L46.98 2.18L46.98 134.61L63.28 134.61L63.28 28.98L139.67 134.61L155.39 134.61Z" fill="#000000" fill-opacity="1.000000" fill-rule="nonzero"/>
		<path id="Vector" d="M715.3 134.61L715.3 2.18L699 2.18L699 134.61L715.3 134.61Z" fill="#000000" fill-opacity="1.000000" fill-rule="nonzero"/>
		<path id="Vector" d="M854.39 134.61L854.39 2.18L838.09 2.18L838.09 105.62L762.68 2.18L745.98 2.18L745.98 134.61L762.28 134.61L762.28 28.98L838.68 134.61L854.39 134.61Z" fill="#000000" fill-opacity="1.000000" fill-rule="nonzero"/>
	</g>
</svg>
